<svg xmlns="http://www.w3.org/2000/svg" viewBox="0 0 32 32"><defs><style>.cls-1{fill:#231f20;}</style></defs><g id="tag_close" data-name="tag close"><path class="cls-1" d="M27.81,12h-3.6L18.09,5.87a3,3,0,0,0-4.18,0L7.79,12H4.19A2.19,2.19,0,0,0,2,14.19v9.62A2.19,2.19,0,0,0,4.19,26H27.81A2.19,2.19,0,0,0,30,23.81V14.19A2.19,2.19,0,0,0,27.81,12ZM15.32,7.28a1,1,0,0,1,1.36,0L21.39,12H10.61ZM28,23.81a.2.2,0,0,1-.19.19H4.19A.2.2,0,0,1,4,23.81V14.19A.2.2,0,0,1,4.19,14H27.81a.2.2,0,0,1,.19.19Z"/><path class="cls-1" d="M7.77,17.46a.76.76,0,0,1,.57-.2.93.93,0,0,1,.52.13.74.74,0,0,1,.28.47.31.31,0,0,0,.1.19.33.33,0,0,0,.19.06H10a.24.24,0,0,0,.18-.07.23.23,0,0,0,.07-.19,1.43,1.43,0,0,0-.14-.61,1.65,1.65,0,0,0-1-.82,2.47,2.47,0,0,0-.79-.12,2.25,2.25,0,0,0-1,.21,1.58,1.58,0,0,0-.65.63,2.19,2.19,0,0,0-.25.95c0,.18,0,.37,0,.56s0,.38,0,.55a2.2,2.2,0,0,0,.25,1,1.45,1.45,0,0,0,.65.62,2.12,2.12,0,0,0,1,.22,2.47,2.47,0,0,0,.79-.12,1.77,1.77,0,0,0,.59-.33,1.57,1.57,0,0,0,.4-.49,1.43,1.43,0,0,0,.14-.61.23.23,0,0,0-.07-.19.25.25,0,0,0-.18-.08H9.43a.29.29,0,0,0-.29.25.76.76,0,0,1-.28.48,1,1,0,0,1-.52.13.81.81,0,0,1-.57-.2,1,1,0,0,1-.22-.68c0-.35,0-.69,0-1A1,1,0,0,1,7.77,17.46Z"/><path class="cls-1" d="M13.65,20H11.84V16.63a.26.26,0,0,0-.07-.19.3.3,0,0,0-.2-.08H11a.24.24,0,0,0-.19.08.24.24,0,0,0-.08.19v4a.29.29,0,0,0,.07.2.3.3,0,0,0,.2.08h2.64a.32.32,0,0,0,.2-.08.29.29,0,0,0,.07-.2v-.43a.24.24,0,0,0-.08-.2A.27.27,0,0,0,13.65,20Z"/><path class="cls-1" d="M17.62,17.12a1.63,1.63,0,0,0-.68-.62,2.3,2.3,0,0,0-1-.2,2.27,2.27,0,0,0-1,.2,1.55,1.55,0,0,0-.67.62,2,2,0,0,0-.26,1c0,.18,0,.36,0,.53s0,.35,0,.53a2.18,2.18,0,0,0,.25,1,1.47,1.47,0,0,0,.67.61,2.25,2.25,0,0,0,1,.2,2.33,2.33,0,0,0,1-.2,1.44,1.44,0,0,0,.66-.61,2.17,2.17,0,0,0,.26-1c0-.18,0-.36,0-.54s0-.35,0-.53A2.23,2.23,0,0,0,17.62,17.12ZM16,20a.74.74,0,0,1-.55-.21,1,1,0,0,1-.23-.68c0-.19,0-.35,0-.51s0-.31,0-.49a1.16,1.16,0,0,1,.11-.53.59.59,0,0,1,.27-.27.87.87,0,0,1,.4-.09.84.84,0,0,1,.4.09.59.59,0,0,1,.27.27,1.26,1.26,0,0,1,.12.53c0,.18,0,.34,0,.49s0,.32,0,.5a1,1,0,0,1-.23.69A.78.78,0,0,1,16,20Z"/><path class="cls-1" d="M21.19,18.47a5,5,0,0,0-.87-.28,4.35,4.35,0,0,1-.57-.18.79.79,0,0,1-.28-.16.35.35,0,0,1,.07-.49.91.91,0,0,1,.47-.1.82.82,0,0,1,.44.11.41.41,0,0,1,.2.28.28.28,0,0,0,.13.15.29.29,0,0,0,.16,0h.56a.22.22,0,0,0,.19-.09.26.26,0,0,0,.07-.17,1.1,1.1,0,0,0-.13-.45,1.58,1.58,0,0,0-.34-.41,1.66,1.66,0,0,0-.54-.31A2.45,2.45,0,0,0,20,16.3a2.07,2.07,0,0,0-.9.17,1.38,1.38,0,0,0-.6.48,1.27,1.27,0,0,0-.22.71,1.21,1.21,0,0,0,.18.68,1.23,1.23,0,0,0,.51.44,3.79,3.79,0,0,0,.79.28,5.49,5.49,0,0,1,.62.18,1.3,1.3,0,0,1,.32.18.24.24,0,0,1,.07.19.34.34,0,0,1-.16.3A1.08,1.08,0,0,1,20,20a1,1,0,0,1-.41-.07.7.7,0,0,1-.24-.15.77.77,0,0,1-.11-.19v0a.52.52,0,0,0-.1-.11.3.3,0,0,0-.2-.07h-.54a.25.25,0,0,0-.18.08.24.24,0,0,0-.07.18,1.22,1.22,0,0,0,.23.65,1.57,1.57,0,0,0,.63.49A2.45,2.45,0,0,0,20,21a2.59,2.59,0,0,0,.95-.17,1.49,1.49,0,0,0,.66-.48,1.24,1.24,0,0,0,.24-.77,1.26,1.26,0,0,0-.17-.67A1.18,1.18,0,0,0,21.19,18.47Z"/><path class="cls-1" d="M25.33,20H23.41v-.89h1.74a.27.27,0,0,0,.2-.07.28.28,0,0,0,.08-.2v-.38a.28.28,0,0,0-.08-.2.3.3,0,0,0-.2-.08H23.41v-.84h1.88a.27.27,0,0,0,.19-.08.24.24,0,0,0,.08-.19v-.41a.24.24,0,0,0-.08-.2.27.27,0,0,0-.19-.08H22.61a.27.27,0,0,0-.19.08.28.28,0,0,0-.08.2v4a.3.3,0,0,0,.08.2.27.27,0,0,0,.19.08h2.72a.28.28,0,0,0,.2-.08.3.3,0,0,0,.08-.2v-.41a.32.32,0,0,0-.08-.2A.27.27,0,0,0,25.33,20Z"/></g></svg>