<svg xmlns="http://www.w3.org/2000/svg" viewBox="0 0 32 32"><defs><style>.cls-1{fill:#231f20;}</style></defs><g id="tag_open" data-name="tag open"><path class="cls-1" d="M27.81,12h-3.6L18.09,5.87a3,3,0,0,0-4.18,0L7.79,12H4.19A2.19,2.19,0,0,0,2,14.19v9.62A2.19,2.19,0,0,0,4.19,26H27.81A2.19,2.19,0,0,0,30,23.81V14.19A2.19,2.19,0,0,0,27.81,12ZM15.32,7.28a1,1,0,0,1,1.36,0L21.39,12H10.61ZM28,23.81a.2.2,0,0,1-.19.19H4.19A.2.2,0,0,1,4,23.81V14.19A.2.2,0,0,1,4.19,14H27.81a.2.2,0,0,1,.19.19Z"/><path class="cls-1" d="M11.48,17.12a1.59,1.59,0,0,0-.69-.62,2.36,2.36,0,0,0-1-.2,2.41,2.41,0,0,0-1,.2,1.57,1.57,0,0,0-.68.62,1.9,1.9,0,0,0-.27,1c0,.18,0,.36,0,.53s0,.35,0,.53a2.07,2.07,0,0,0,.26,1,1.51,1.51,0,0,0,.68.62,2.6,2.6,0,0,0,1,.19,2.46,2.46,0,0,0,1-.2,1.44,1.44,0,0,0,.68-.61,2.06,2.06,0,0,0,.26-1c0-.18,0-.36,0-.54s0-.35,0-.53A1.9,1.9,0,0,0,11.48,17.12ZM9.8,20a.79.79,0,0,1-.57-.21A.91.91,0,0,1,9,19.15v-1a1.26,1.26,0,0,1,.12-.53.64.64,0,0,1,.27-.27.93.93,0,0,1,.42-.09,1,1,0,0,1,.42.09.64.64,0,0,1,.27.27,1.26,1.26,0,0,1,.12.53c0,.18,0,.34,0,.49s0,.32,0,.5a.92.92,0,0,1-.24.69A.79.79,0,0,1,9.8,20Z"/><path class="cls-1" d="M15.17,16.52a2.24,2.24,0,0,0-.89-.16H12.6a.27.27,0,0,0-.19.08.28.28,0,0,0-.08.2v4a.3.3,0,0,0,.08.2.27.27,0,0,0,.19.08h.6a.27.27,0,0,0,.2-.09.25.25,0,0,0,.07-.19V19.34h.81a2.24,2.24,0,0,0,.89-.16,1.31,1.31,0,0,0,.62-.49,1.45,1.45,0,0,0,.22-.83,1.5,1.5,0,0,0-.22-.84A1.4,1.4,0,0,0,15.17,16.52Zm-.3,1.34a.53.53,0,0,1-.15.41.74.74,0,0,1-.48.14h-.78V17.29h.78a.67.67,0,0,1,.48.15A.58.58,0,0,1,14.87,17.86Z"/><path class="cls-1" d="M19.51,20h-2v-.89h1.79a.27.27,0,0,0,.2-.07.25.25,0,0,0,.08-.2v-.38a.28.28,0,0,0-.08-.2.3.3,0,0,0-.2-.08H17.53v-.84h1.93a.28.28,0,0,0,.2-.08.27.27,0,0,0,.08-.19v-.41a.27.27,0,0,0-.28-.28H16.71a.27.27,0,0,0-.19.08.25.25,0,0,0-.08.2v4a.3.3,0,0,0,.08.2.27.27,0,0,0,.19.08h2.8a.28.28,0,0,0,.2-.08.3.3,0,0,0,.08-.2v-.41a.32.32,0,0,0-.08-.2A.27.27,0,0,0,19.51,20Z"/><path class="cls-1" d="M23.72,16.36H23.2a.28.28,0,0,0-.2.08.27.27,0,0,0-.07.2v2.29l-1.58-2.42-.06-.07a.26.26,0,0,0-.22-.08h-.48a.27.27,0,0,0-.19.08.28.28,0,0,0-.08.2v4a.3.3,0,0,0,.08.2.27.27,0,0,0,.19.08h.53a.27.27,0,0,0,.28-.28V18.42L23,20.78l0,0,0,0a.26.26,0,0,0,.21.09h.49a.32.32,0,0,0,.2-.08.3.3,0,0,0,.08-.2v-4a.29.29,0,0,0-.08-.2A.32.32,0,0,0,23.72,16.36Z"/></g></svg>